<svg width="1600" height="1000" viewBox="0 0 1600 1000" fill="none" xmlns="http://www.w3.org/2000/svg">
  <rect width="1600" height="1000" fill="#F6F8FC"/>
  <rect y="710" width="1600" height="290" fill="#D8E5F8"/>
  <rect x="155" y="225" width="680" height="455" rx="28" fill="#FFFFFF"/>
  <rect x="220" y="315" width="550" height="280" rx="20" fill="#E3ECFA"/>
  <rect x="255" y="350" width="180" height="210" rx="16" fill="#0057B8"/>
  <rect x="470" y="350" width="120" height="210" rx="16" fill="#6C93D2"/>
  <rect x="625" y="350" width="110" height="210" rx="16" fill="#FF6600"/>
  <rect x="940" y="210" width="500" height="200" rx="32" fill="#FFFFFF"/>
  <rect x="985" y="260" width="165" height="20" rx="10" fill="#FF6600"/>
  <rect x="985" y="310" width="280" height="26" rx="13" fill="#0057B8"/>
  <rect x="985" y="355" width="230" height="18" rx="9" fill="#8FAAD6"/>
  <rect x="920" y="480" width="520" height="220" rx="32" fill="#0D2D61"/>
  <rect x="970" y="540" width="180" height="24" rx="12" fill="#FF6600"/>
  <rect x="970" y="590" width="350" height="26" rx="13" fill="#FFFFFF"/>
</svg>
