<svg width="1600" height="1000" viewBox="0 0 1600 1000" fill="none" xmlns="http://www.w3.org/2000/svg">
  <rect width="1600" height="1000" fill="#F7F9FC"/>
  <rect y="660" width="1600" height="340" fill="#DCE6F7"/>
  <rect x="160" y="210" width="620" height="470" rx="28" fill="#FFFFFF"/>
  <rect x="220" y="300" width="120" height="300" rx="12" fill="#0057B8"/>
  <rect x="365" y="250" width="120" height="350" rx="12" fill="#0C6EDA"/>
  <rect x="510" y="340" width="120" height="260" rx="12" fill="#FF6600"/>
  <rect x="655" y="275" width="70" height="325" rx="12" fill="#77A0DF"/>
  <rect x="910" y="180" width="520" height="180" rx="28" fill="#0F2F61"/>
  <rect x="960" y="235" width="165" height="20" rx="10" fill="#FF6600"/>
  <rect x="960" y="285" width="310" height="28" rx="14" fill="#FFFFFF"/>
  <rect x="960" y="420" width="520" height="275" rx="30" fill="#FFFFFF"/>
  <rect x="1010" y="470" width="420" height="36" rx="18" fill="#E3EBF9"/>
  <rect x="1010" y="530" width="340" height="24" rx="12" fill="#D5E1F5"/>
  <rect x="1010" y="575" width="280" height="24" rx="12" fill="#D5E1F5"/>
  <rect x="1010" y="630" width="160" height="18" rx="9" fill="#FF6600"/>
</svg>
