<svg width="1600" height="900" viewBox="0 0 1600 900" fill="none" xmlns="http://www.w3.org/2000/svg">
  <rect width="1600" height="900" fill="#F5F5F5"/>
  <rect x="90" y="90" width="1420" height="720" rx="40" fill="#FFFFFF"/>
  <rect x="155" y="155" width="530" height="590" rx="28" fill="#0E3A78"/>
  <rect x="780" y="180" width="145" height="18" rx="9" fill="#FF6600"/>
  <rect x="780" y="235" width="470" height="42" rx="18" fill="#0057B8"/>
  <rect x="780" y="300" width="560" height="24" rx="12" fill="#C9D8F3"/>
  <rect x="780" y="345" width="500" height="24" rx="12" fill="#D7E2F5"/>
  <rect x="780" y="390" width="455" height="24" rx="12" fill="#D7E2F5"/>
  <rect x="780" y="470" width="180" height="22" rx="11" fill="#FF6600"/>
  <rect x="780" y="530" width="510" height="140" rx="28" fill="#EEF3FB"/>
  <path d="M235 610L365 455L465 535L585 380" stroke="#FF6600" stroke-width="22" stroke-linecap="round" stroke-linejoin="round"/>
  <circle cx="235" cy="610" r="24" fill="#FF6600"/>
  <circle cx="365" cy="455" r="24" fill="#FF6600"/>
  <circle cx="465" cy="535" r="24" fill="#FF6600"/>
  <circle cx="585" cy="380" r="24" fill="#FF6600"/>
</svg>
